<svg width="98" height="62" viewBox="0 0 98 62" fill="none" xmlns="http://www.w3.org/2000/svg">
<path fill-rule="evenodd" clip-rule="evenodd" d="M0.875 31.0039C0.875 30.0922 1.23716 29.2178 1.88182 28.5732C2.52648 27.9285 3.40082 27.5664 4.3125 27.5664H85.3894L63.7537 5.93761C63.1083 5.29214 62.7457 4.41669 62.7457 3.50385C62.7457 2.59102 63.1083 1.71557 63.7537 1.0701C64.3992 0.424633 65.2747 0.0620117 66.1875 0.0620117C67.1003 0.0620117 67.9758 0.424633 68.6213 1.0701L96.1213 28.5701C96.4414 28.8894 96.6954 29.2688 96.8686 29.6864C97.0419 30.104 97.1311 30.5517 97.1311 31.0039C97.1311 31.456 97.0419 31.9037 96.8686 32.3213C96.6954 32.739 96.4414 33.1183 96.1213 33.4376L68.6213 60.9376C67.9758 61.5831 67.1003 61.9457 66.1875 61.9457C65.2747 61.9457 64.3992 61.5831 63.7537 60.9376C63.1083 60.2921 62.7457 59.4167 62.7457 58.5039C62.7457 57.591 63.1083 56.7156 63.7537 56.0701L85.3894 34.4414H4.3125C3.40082 34.4414 2.52648 34.0792 1.88182 33.4345C1.23716 32.7899 0.875 31.9155 0.875 31.0039Z" fill="black"/>
</svg>
