<svg width="29" height="29" viewBox="0 0 29 29" fill="none" xmlns="http://www.w3.org/2000/svg">
<path fill-rule="evenodd" clip-rule="evenodd" d="M28.3745 1.78125C28.3745 1.47459 28.2527 1.1805 28.0359 0.963658C27.819 0.746819 27.5249 0.625 27.2183 0.625H13.3433C13.0366 0.625 12.7425 0.746819 12.5257 0.963658C12.3088 1.1805 12.187 1.47459 12.187 1.78125C12.187 2.08791 12.3088 2.382 12.5257 2.59884C12.7425 2.81568 13.0366 2.9375 13.3433 2.9375H24.4271L0.962132 26.4001C0.854629 26.5076 0.769353 26.6353 0.711172 26.7757C0.652992 26.9162 0.623047 27.0667 0.623047 27.2188C0.623047 27.3708 0.652992 27.5213 0.711172 27.6618C0.769353 27.8022 0.854629 27.9299 0.962132 28.0374C1.06964 28.1449 1.19726 28.2302 1.33772 28.2883C1.47818 28.3465 1.62872 28.3765 1.78076 28.3765C1.93279 28.3765 2.08333 28.3465 2.22379 28.2883C2.36425 28.2302 2.49188 28.1449 2.59938 28.0374L26.062 4.57244V15.6562C26.062 15.9629 26.1838 16.257 26.4007 16.4738C26.6175 16.6907 26.9116 16.8125 27.2183 16.8125C27.5249 16.8125 27.819 16.6907 28.0359 16.4738C28.2527 16.257 28.3745 15.9629 28.3745 15.6562V1.78125Z" fill="white"/>
</svg>
