<svg width="29" height="29" viewBox="0 0 29 29" fill="none" xmlns="http://www.w3.org/2000/svg">
<path fill-rule="evenodd" clip-rule="evenodd" d="M28.3745 27.2188C28.3745 27.5254 28.2527 27.8195 28.0359 28.0363C27.819 28.2532 27.5249 28.375 27.2183 28.375H13.3433C13.0366 28.375 12.7425 28.2532 12.5257 28.0363C12.3088 27.8195 12.187 27.5254 12.187 27.2188C12.187 26.9121 12.3088 26.618 12.5257 26.4012C12.7425 26.1843 13.0366 26.0625 13.3433 26.0625H24.4271L0.962132 2.59987C0.854629 2.49237 0.769353 2.36475 0.711172 2.22429C0.652992 2.08383 0.623047 1.93328 0.623047 1.78125C0.623047 1.62922 0.652992 1.47867 0.711172 1.33821C0.769353 1.19775 0.854629 1.07013 0.962132 0.962626C1.06964 0.855122 1.19726 0.769844 1.33772 0.711664C1.47818 0.653484 1.62872 0.623541 1.78076 0.623541C1.93279 0.623541 2.08333 0.653484 2.22379 0.711664C2.36425 0.769844 2.49188 0.855122 2.59938 0.962626L26.062 24.4276V13.3438C26.062 13.0371 26.1838 12.743 26.4007 12.5262C26.6175 12.3093 26.9116 12.1875 27.2183 12.1875C27.5249 12.1875 27.819 12.3093 28.0359 12.5262C28.2527 12.743 28.3745 13.0371 28.3745 13.3438V27.2188Z" fill="#FF6A16"/>
</svg>
