<svg width="36" height="36" viewBox="0 0 36 36" fill="none" xmlns="http://www.w3.org/2000/svg">
<path d="M21.75 33C22.0815 33 22.3995 33.1317 22.6339 33.3661C22.8683 33.6005 23 33.9185 23 34.25C23 34.5815 22.8683 34.8995 22.6339 35.1339C22.3995 35.3683 22.0815 35.5 21.75 35.5H1.75C1.41848 35.5 1.10054 35.3683 0.866117 35.1339C0.631696 34.8995 0.5 34.5815 0.5 34.25V14.25C0.5 13.9185 0.631696 13.6005 0.866117 13.3661C1.10054 13.1317 1.41848 13 1.75 13C2.08152 13 2.39946 13.1317 2.63388 13.3661C2.8683 13.6005 3 13.9185 3 14.25V31.2325L33.365 0.864998C33.5997 0.630283 33.9181 0.498421 34.25 0.498421C34.5819 0.498421 34.9003 0.630283 35.135 0.864998C35.3697 1.09972 35.5016 1.41806 35.5016 1.75C35.5016 2.08194 35.3697 2.40028 35.135 2.635L4.7675 33H21.75Z" fill="white"/>
</svg>
